{"accessors":[{"bufferView":0,"componentType":5126,"count":180,"max":[0.4996626079082489,0.9774540066719055,0.4996602535247803],"min":[-0.48454633355140686,-0.9764575958251953,-0.48117727041244507],"normalized":false,"type":"VEC3"},{"bufferView":1,"componentType":5121,"count":180,"max":[179],"min":[0],"normalized":false,"type":"SCALAR"},{"bufferView":2,"componentType":5126,"count":11779,"max":[193.15780639648438,-23.479312896728516,40.0],"min":[9.575543403625488,-335.16864013671875,0.0],"normalized":false,"type":"VEC3"},{"bufferView":3,"componentType":5126,"count":11779,"max":[1.0,1.0,0.029335910454392433,1.0],"min":[-1.0,-1.0,-1.0,-1.0],"normalized":false,"type":"VEC4"},{"bufferView":4,"componentType":5126,"count":11779,"max":[1.0,0.9999477863311768,1.0],"min":[-1.0,-1.0,-1.0],"normalized":false,"type":"VEC3"},{"bufferView":5,"componentType":5126,"count":11779,"max":[9.1804838180542,16.583553314208984],"min":[-9.1804838180542,-14.585378646850586],"normalized":false,"type":"VEC2"},{"bufferView":6,"componentType":5123,"count":55038,"max":[11778],"min":[0],"normalized":false,"type":"SCALAR"}],"asset":{"generator":"Godot Engine v4.7.2.stable.mono.official@ed1daf0bf001b61586d9930840f2f1394092c079","version":"2.0"},"bufferViews":[{"buffer":0,"byteLength":2160,"byteStride":12,"target":34962},{"buffer":0,"byteLength":180,"byteOffset":2160,"target":34963},{"buffer":0,"byteLength":141348,"byteOffset":2340,"byteStride":12,"target":34962},{"buffer":0,"byteLength":188464,"byteOffset":143688,"byteStride":16,"target":34962},{"buffer":0,"byteLength":141348,"byteOffset":332152,"byteStride":12,"target":34962},{"buffer":0,"byteLength":94232,"byteOffset":473500,"byteStride":8,"target":34962},{"buffer":0,"byteLength":110076,"byteOffset":567732,"target":34963}],"buffers":[{"byteLength":677808,"uri":"casino_goon_isolated0.bin"}],"extensions":{"OMI_physics_shape":{"shapes":[{"convex":{"mesh":0},"type":"convex"}]}},"extensionsUsed":["GODOT_single_root","OMI_physics_body","OMI_physics_shape"],"meshes":[{"primitives":[{"attributes":{"POSITION":0},"indices":1,"mode":4}]},{"name":"Mesh2","primitives":[{"attributes":{"NORMAL":4,"POSITION":2,"TANGENT":3,"TEXCOORD_0":5},"indices":6,"mode":4}]}],"nodes":[{"children":[1,2,3],"extensions":{"OMI_physics_body":{"motion":{"type":"kinematic"}}},"name":"CharacterBody3D","scale":[0.05000000074505806,0.05000000074505806,0.05000000074505806]},{"extensions":{"OMI_physics_body":{"collider":{"shape":0}}},"name":"CollisionShape3D","scale":[2.0,2.0,2.0],"translation":[0.020779937505722046,1.79395592212677,0.15725398063659668]},{"name":"Decal2","rotation":[0.6902512907981873,0.0,0.0,0.7235697507858276],"scale":[104.00000762939453,104.0,104.0],"translation":[100.27130126953125,-181.04278564453125,-97.46916961669922]},{"children":[4],"name":"casino goon"},{"mesh":1,"name":"Mesh"}],"scene":0,"scenes":[{"nodes":[0]}]}