{"accessors":[{"bufferView":0,"componentType":5126,"count":288,"max":[52.45313262939453,-2.3672473430633545,60.57673645019531],"min":[-1.5035266876220703,-2.3682472705841064,-8.663408279418945],"normalized":false,"type":"VEC3"},{"bufferView":1,"componentType":5126,"count":288,"max":[0.0,0.0,7.630093023180962e-05,-1.0],"min":[-1.0,-1.0,-1.0,-1.0],"normalized":false,"type":"VEC4"},{"bufferView":2,"componentType":5126,"count":288,"max":[1.0,1.0,1.0],"min":[-1.0,-1.0,-1.0],"normalized":false,"type":"VEC3"},{"bufferView":3,"componentType":5126,"count":288,"max":[1.0,1.0],"min":[0.0,0.0],"normalized":false,"type":"VEC2"},{"bufferView":4,"componentType":5123,"count":288,"max":[287],"min":[0],"normalized":false,"type":"SCALAR"},{"bufferView":5,"componentType":5126,"count":66,"max":[17.901168823242188,16.217853546142578,22.21938133239746],"min":[13.092330932617188,-4.391887664794922,4.701725006103516],"normalized":false,"type":"VEC3"},{"bufferView":6,"componentType":5126,"count":66,"max":[0.0,0.0,7.630093023180962e-05,-1.0],"min":[-1.0,-1.0,-1.0,-1.0],"normalized":false,"type":"VEC4"},{"bufferView":7,"componentType":5126,"count":66,"max":[1.0,1.0,-1.5259021893143654e-05],"min":[-1.0,-1.0,-1.0],"normalized":false,"type":"VEC3"},{"bufferView":8,"componentType":5126,"count":66,"max":[1.0,1.0],"min":[0.0,0.0],"normalized":false,"type":"VEC2"},{"bufferView":9,"componentType":5121,"count":66,"max":[65],"min":[0],"normalized":false,"type":"SCALAR"},{"bufferView":10,"componentType":5126,"count":54,"max":[34.73711395263672,13.607379913330078,-4.146508693695068],"min":[4.38789701461792,-4.391887664794922,-8.955348014831543],"normalized":false,"type":"VEC3"},{"bufferView":11,"componentType":5126,"count":54,"max":[-1.5259720385074615e-05,4.5779161155223846e-05,1.0,-1.0],"min":[-1.0,-1.0,-4.5778462663292885e-05,-1.0],"normalized":false,"type":"VEC4"},{"bufferView":12,"componentType":5126,"count":54,"max":[1.0,1.0,1.0],"min":[-1.5259254723787308e-05,-1.0,-1.0],"normalized":false,"type":"VEC3"},{"bufferView":13,"componentType":5126,"count":54,"max":[1.0,1.0],"min":[0.0,0.0],"normalized":false,"type":"VEC2"},{"bufferView":14,"componentType":5121,"count":54,"max":[53],"min":[0],"normalized":false,"type":"SCALAR"},{"bufferView":15,"componentType":5126,"count":534,"max":[56.277549743652344,22.050525665283203,60.60889434814453],"min":[-0.13560104370117188,-4.431160926818848,-17.221893310546875],"normalized":false,"type":"VEC3"},{"bufferView":16,"componentType":5126,"count":534,"max":[0.026445403695106506,0.0001526228297734633,1.0,1.0],"min":[-1.0,-1.0,-1.0,-1.0],"normalized":false,"type":"VEC4"},{"bufferView":17,"componentType":5126,"count":534,"max":[1.0,1.0,1.0],"min":[-1.0,-1.0,-1.0],"normalized":false,"type":"VEC3"},{"bufferView":18,"componentType":5126,"count":534,"max":[1.0,1.0],"min":[0.0,0.0],"normalized":false,"type":"VEC2"},{"bufferView":19,"componentType":5123,"count":534,"max":[533],"min":[0],"normalized":false,"type":"SCALAR"},{"bufferView":20,"componentType":5126,"count":120,"max":[40.72773742675781,15.221637725830078,60.79856872558594],"min":[0.00041961669921875,-4.391887664794922,55.98973083496094],"normalized":false,"type":"VEC3"},{"bufferView":21,"componentType":5126,"count":120,"max":[0.057165857404470444,4.5779161155223846e-05,1.0,-1.0],"min":[-1.0,-1.0,-4.5778462663292885e-05,-1.0],"normalized":false,"type":"VEC4"},{"bufferView":22,"componentType":5126,"count":120,"max":[1.0,1.0,1.0],"min":[-1.0,-1.0,-1.0],"normalized":false,"type":"VEC3"},{"bufferView":23,"componentType":5126,"count":120,"max":[1.0,1.0],"min":[0.0,0.0],"normalized":false,"type":"VEC2"},{"bufferView":24,"componentType":5121,"count":120,"max":[119],"min":[0],"normalized":false,"type":"SCALAR"},{"bufferView":25,"componentType":5126,"count":54,"max":[40.55068588256836,12.077228546142578,21.761119842529297],"min":[13.124629974365234,-4.391887664794922,17.997325897216797],"normalized":false,"type":"VEC3"},{"bufferView":26,"componentType":5126,"count":54,"max":[-1.5260186046361923e-05,0.0,7.630093023180962e-05,-1.0],"min":[-1.0,-1.0,-4.5778462663292885e-05,-1.0],"normalized":false,"type":"VEC4"},{"bufferView":27,"componentType":5126,"count":54,"max":[0.0,1.0,1.0],"min":[-1.5259254723787308e-05,-1.0,-1.0],"normalized":false,"type":"VEC3"},{"bufferView":28,"componentType":5126,"count":54,"max":[1.0,1.0],"min":[0.0,0.0],"normalized":false,"type":"VEC2"},{"bufferView":29,"componentType":5126,"count":90,"max":[4.387897968292236,22.050525665283203,7.441571235656738],"min":[-10.159229278564453,-4.391887664794922,-12.411761283874512],"normalized":false,"type":"VEC3"},{"bufferView":30,"componentType":5126,"count":90,"max":[-1.5259720385074615e-05,4.5779161155223846e-05,1.0,-1.0],"min":[-1.0,-1.0,-4.5778462663292885e-05,-1.0],"normalized":false,"type":"VEC4"},{"bufferView":31,"componentType":5126,"count":90,"max":[1.0,1.0,1.0],"min":[-1.0,-1.0,-1.0],"normalized":false,"type":"VEC3"},{"bufferView":32,"componentType":5126,"count":90,"max":[1.0,1.0],"min":[0.0,0.0],"normalized":false,"type":"VEC2"},{"bufferView":33,"componentType":5121,"count":90,"max":[89],"min":[0],"normalized":false,"type":"SCALAR"},{"bufferView":34,"componentType":5126,"count":114,"max":[44.82997131347656,20.359149932861328,22.806163787841797],"min":[26.77027702331543,-4.391887664794922,12.094493865966797],"normalized":false,"type":"VEC3"},{"bufferView":35,"componentType":5126,"count":114,"max":[-1.5259720385074615e-05,4.5779161155223846e-05,1.0,-1.0],"min":[-1.0,-1.0,-4.5778462663292885e-05,-1.0],"normalized":false,"type":"VEC4"},{"bufferView":36,"componentType":5126,"count":114,"max":[1.0,1.0,1.0],"min":[-1.0,-1.0,-1.0],"normalized":false,"type":"VEC3"},{"bufferView":37,"componentType":5126,"count":114,"max":[1.0,1.0],"min":[0.0,0.0],"normalized":false,"type":"VEC2"},{"bufferView":38,"componentType":5121,"count":114,"max":[113],"min":[0],"normalized":false,"type":"SCALAR"},{"bufferView":39,"componentType":5126,"count":114,"max":[25.546531677246094,20.359149932861328,22.806163787841797],"min":[13.091194152832031,-4.391887664794922,12.094493865966797],"normalized":false,"type":"VEC3"},{"bufferView":40,"componentType":5126,"count":114,"max":[-1.5259720385074615e-05,4.5779161155223846e-05,1.0,-1.0],"min":[-1.0,-1.0,-4.5778462663292885e-05,-1.0],"normalized":false,"type":"VEC4"},{"bufferView":41,"componentType":5126,"count":114,"max":[1.0,1.0,1.0],"min":[-1.0,-1.0,-1.0],"normalized":false,"type":"VEC3"},{"bufferView":42,"componentType":5126,"count":114,"max":[1.0,1.0],"min":[0.0,0.0],"normalized":false,"type":"VEC2"},{"bufferView":43,"componentType":5126,"count":72,"max":[51.478145599365234,12.44998550415039,20.788330078125],"min":[36.816890716552734,-4.391872406005859,-8.711956024169922],"normalized":false,"type":"VEC3"},{"bufferView":44,"componentType":5126,"count":72,"max":[0.0,0.0,7.630093023180962e-05,-1.0],"min":[-1.0,-1.0,-1.0,-1.0],"normalized":false,"type":"VEC4"},{"bufferView":45,"componentType":5126,"count":72,"max":[1.0,1.0,-1.5259021893143654e-05],"min":[-1.0,-1.0,-1.0],"normalized":false,"type":"VEC3"},{"bufferView":46,"componentType":5126,"count":72,"max":[1.0,1.0],"min":[0.0,0.0],"normalized":false,"type":"VEC2"},{"bufferView":47,"componentType":5121,"count":72,"max":[71],"min":[0],"normalized":false,"type":"SCALAR"},{"bufferView":48,"componentType":5126,"count":66,"max":[-0.5733070373535156,12.44998550415039,22.785240173339844],"min":[-15.234561920166016,-4.391872406005859,-8.711956024169922],"normalized":false,"type":"VEC3"},{"bufferView":49,"componentType":5126,"count":66,"max":[0.0,0.0,7.630093023180962e-05,-1.0],"min":[-1.0,-1.0,-1.0,-1.0],"normalized":false,"type":"VEC4"},{"bufferView":50,"componentType":5126,"count":66,"max":[1.0,1.0,1.0],"min":[-1.0,-1.0,-1.0],"normalized":false,"type":"VEC3"},{"bufferView":51,"componentType":5126,"count":66,"max":[1.0,1.0],"min":[0.0,0.0],"normalized":false,"type":"VEC2"},{"bufferView":52,"componentType":5126,"count":126,"max":[4.359962463378906,17.61569595336914,60.28740310668945],"min":[-7.994651794433594,-4.391872406005859,9.16286849975586],"normalized":false,"type":"VEC3"},{"bufferView":53,"componentType":5126,"count":126,"max":[0.0,0.0,7.630093023180962e-05,-1.0],"min":[-1.0,-1.0,-1.0,-1.0],"normalized":false,"type":"VEC4"},{"bufferView":54,"componentType":5126,"count":126,"max":[1.0,1.0,1.0],"min":[-1.0,-1.0,-1.0],"normalized":false,"type":"VEC3"},{"bufferView":55,"componentType":5126,"count":126,"max":[1.0,1.0],"min":[0.0,0.0],"normalized":false,"type":"VEC2"},{"bufferView":56,"componentType":5121,"count":126,"max":[125],"min":[0],"normalized":false,"type":"SCALAR"},{"bufferView":57,"componentType":5126,"count":252,"max":[12.701705932617188,11.0,24.0],"min":[-12.701705932617188,-11.0,0.0],"normalized":false,"type":"VEC3"},{"bufferView":58,"componentType":5126,"count":252,"max":[1.0,1.0,5.257129669189453e-05,1.0],"min":[-1.0,-1.0,-5.8531761169433594e-05,1.0],"normalized":false,"type":"VEC4"},{"bufferView":59,"componentType":5126,"count":252,"max":[1.0,1.0,1.0],"min":[-1.0,-1.0,-1.0],"normalized":false,"type":"VEC3"},{"bufferView":60,"componentType":5126,"count":252,"max":[1.270171046257019,2.0999999046325684],"min":[-1.270171046257019,-1.1000365018844604],"normalized":false,"type":"VEC2"},{"bufferView":61,"componentType":5121,"count":564,"max":[251],"min":[0],"normalized":false,"type":"SCALAR"},{"bufferView":62,"componentType":5126,"count":11779,"max":[193.15780639648438,-23.479312896728516,40.0],"min":[9.575543403625488,-335.16864013671875,0.0],"normalized":false,"type":"VEC3"},{"bufferView":63,"componentType":5126,"count":11779,"max":[1.0,1.0,0.029335910454392433,1.0],"min":[-1.0,-1.0,-1.0,-1.0],"normalized":false,"type":"VEC4"},{"bufferView":64,"componentType":5126,"count":11779,"max":[1.0,0.9999477863311768,1.0],"min":[-1.0,-1.0,-1.0],"normalized":false,"type":"VEC3"},{"bufferView":65,"componentType":5126,"count":11779,"max":[9.1804838180542,16.583553314208984],"min":[-9.1804838180542,-14.585378646850586],"normalized":false,"type":"VEC2"},{"bufferView":66,"componentType":5123,"count":55038,"max":[11778],"min":[0],"normalized":false,"type":"SCALAR"},{"bufferView":67,"componentType":5126,"count":180,"max":[0.4996626079082489,0.9774540066719055,0.4996602535247803],"min":[-0.48454633355140686,-0.9764575958251953,-0.48117727041244507],"normalized":false,"type":"VEC3"},{"bufferView":68,"componentType":5121,"count":180,"max":[179],"min":[0],"normalized":false,"type":"SCALAR"}],"asset":{"generator":"Godot Engine v4.7.2.stable.mono.official@ed1daf0bf001b61586d9930840f2f1394092c079","version":"2.0"},"bufferViews":[{"buffer":0,"byteLength":3456,"byteStride":12,"target":34962},{"buffer":0,"byteLength":4608,"byteOffset":3456,"byteStride":16,"target":34962},{"buffer":0,"byteLength":3456,"byteOffset":8064,"byteStride":12,"target":34962},{"buffer":0,"byteLength":2304,"byteOffset":11520,"byteStride":8,"target":34962},{"buffer":0,"byteLength":576,"byteOffset":13824,"target":34963},{"buffer":0,"byteLength":792,"byteOffset":14400,"byteStride":12,"target":34962},{"buffer":0,"byteLength":1056,"byteOffset":15192,"byteStride":16,"target":34962},{"buffer":0,"byteLength":792,"byteOffset":16248,"byteStride":12,"target":34962},{"buffer":0,"byteLength":528,"byteOffset":17040,"byteStride":8,"target":34962},{"buffer":0,"byteLength":66,"byteOffset":17568,"target":34963},{"buffer":0,"byteLength":648,"byteOffset":17636,"byteStride":12,"target":34962},{"buffer":0,"byteLength":864,"byteOffset":18284,"byteStride":16,"target":34962},{"buffer":0,"byteLength":648,"byteOffset":19148,"byteStride":12,"target":34962},{"buffer":0,"byteLength":432,"byteOffset":19796,"byteStride":8,"target":34962},{"buffer":0,"byteLength":54,"byteOffset":20228,"target":34963},{"buffer":0,"byteLength":6408,"byteOffset":20284,"byteStride":12,"target":34962},{"buffer":0,"byteLength":8544,"byteOffset":26692,"byteStride":16,"target":34962},{"buffer":0,"byteLength":6408,"byteOffset":35236,"byteStride":12,"target":34962},{"buffer":0,"byteLength":4272,"byteOffset":41644,"byteStride":8,"target":34962},{"buffer":0,"byteLength":1068,"byteOffset":45916,"target":34963},{"buffer":0,"byteLength":1440,"byteOffset":46984,"byteStride":12,"target":34962},{"buffer":0,"byteLength":1920,"byteOffset":48424,"byteStride":16,"target":34962},{"buffer":0,"byteLength":1440,"byteOffset":50344,"byteStride":12,"target":34962},{"buffer":0,"byteLength":960,"byteOffset":51784,"byteStride":8,"target":34962},{"buffer":0,"byteLength":120,"byteOffset":52744,"target":34963},{"buffer":0,"byteLength":648,"byteOffset":52864,"byteStride":12,"target":34962},{"buffer":0,"byteLength":864,"byteOffset":53512,"byteStride":16,"target":34962},{"buffer":0,"byteLength":648,"byteOffset":54376,"byteStride":12,"target":34962},{"buffer":0,"byteLength":432,"byteOffset":55024,"byteStride":8,"target":34962},{"buffer":0,"byteLength":1080,"byteOffset":55456,"byteStride":12,"target":34962},{"buffer":0,"byteLength":1440,"byteOffset":56536,"byteStride":16,"target":34962},{"buffer":0,"byteLength":1080,"byteOffset":57976,"byteStride":12,"target":34962},{"buffer":0,"byteLength":720,"byteOffset":59056,"byteStride":8,"target":34962},{"buffer":0,"byteLength":90,"byteOffset":59776,"target":34963},{"buffer":0,"byteLength":1368,"byteOffset":59868,"byteStride":12,"target":34962},{"buffer":0,"byteLength":1824,"byteOffset":61236,"byteStride":16,"target":34962},{"buffer":0,"byteLength":1368,"byteOffset":63060,"byteStride":12,"target":34962},{"buffer":0,"byteLength":912,"byteOffset":64428,"byteStride":8,"target":34962},{"buffer":0,"byteLength":114,"byteOffset":65340,"target":34963},{"buffer":0,"byteLength":1368,"byteOffset":65456,"byteStride":12,"target":34962},{"buffer":0,"byteLength":1824,"byteOffset":66824,"byteStride":16,"target":34962},{"buffer":0,"byteLength":1368,"byteOffset":68648,"byteStride":12,"target":34962},{"buffer":0,"byteLength":912,"byteOffset":70016,"byteStride":8,"target":34962},{"buffer":0,"byteLength":864,"byteOffset":70928,"byteStride":12,"target":34962},{"buffer":0,"byteLength":1152,"byteOffset":71792,"byteStride":16,"target":34962},{"buffer":0,"byteLength":864,"byteOffset":72944,"byteStride":12,"target":34962},{"buffer":0,"byteLength":576,"byteOffset":73808,"byteStride":8,"target":34962},{"buffer":0,"byteLength":72,"byteOffset":74384,"target":34963},{"buffer":0,"byteLength":792,"byteOffset":74456,"byteStride":12,"target":34962},{"buffer":0,"byteLength":1056,"byteOffset":75248,"byteStride":16,"target":34962},{"buffer":0,"byteLength":792,"byteOffset":76304,"byteStride":12,"target":34962},{"buffer":0,"byteLength":528,"byteOffset":77096,"byteStride":8,"target":34962},{"buffer":0,"byteLength":1512,"byteOffset":77624,"byteStride":12,"target":34962},{"buffer":0,"byteLength":2016,"byteOffset":79136,"byteStride":16,"target":34962},{"buffer":0,"byteLength":1512,"byteOffset":81152,"byteStride":12,"target":34962},{"buffer":0,"byteLength":1008,"byteOffset":82664,"byteStride":8,"target":34962},{"buffer":0,"byteLength":126,"byteOffset":83672,"target":34963},{"buffer":0,"byteLength":3024,"byteOffset":83800,"byteStride":12,"target":34962},{"buffer":0,"byteLength":4032,"byteOffset":86824,"byteStride":16,"target":34962},{"buffer":0,"byteLength":3024,"byteOffset":90856,"byteStride":12,"target":34962},{"buffer":0,"byteLength":2016,"byteOffset":93880,"byteStride":8,"target":34962},{"buffer":0,"byteLength":564,"byteOffset":95896,"target":34963},{"buffer":0,"byteLength":141348,"byteOffset":96460,"byteStride":12,"target":34962},{"buffer":0,"byteLength":188464,"byteOffset":237808,"byteStride":16,"target":34962},{"buffer":0,"byteLength":141348,"byteOffset":426272,"byteStride":12,"target":34962},{"buffer":0,"byteLength":94232,"byteOffset":567620,"byteStride":8,"target":34962},{"buffer":0,"byteLength":110076,"byteOffset":661852,"target":34963},{"buffer":0,"byteLength":2160,"byteOffset":771928,"byteStride":12,"target":34962},{"buffer":0,"byteLength":180,"byteOffset":774088,"target":34963}],"buffers":[{"byteLength":774268,"uri":"casinogoon_3d0.bin"}],"cameras":[{"perspective":{"yfov":1.3089969158172607,"zfar":4000.0,"znear":0.05000000074505806},"type":"perspective"}],"extensions":{"KHR_lights_punctual":{"lights":[{"type":"directional"}]},"OMI_physics_shape":{"shapes":[{"capsule":{"height":0.820368766784668,"radius":0.357421875},"type":"capsule"},{"convex":{"mesh":5},"type":"convex"}]}},"extensionsRequired":["KHR_node_visibility"],"extensionsUsed":["GODOT_single_root","KHR_lights_punctual","KHR_node_visibility","OMI_physics_body","OMI_physics_shape"],"materials":[{"pbrMetallicRoughness":{"baseColorFactor":[0.015600721351802349,0.015600715763866901,0.015600696206092834,1.0],"metallicFactor":0.0,"roughnessFactor":1.0}},{"pbrMetallicRoughness":{"baseColorFactor":[0.4136035740375519,0.2573167681694031,0.16146117448806763,1.0],"metallicFactor":0.0,"roughnessFactor":1.0}},{"pbrMetallicRoughness":{"baseColorFactor":[0.4894186854362488,0.43435192108154297,0.425161749124527,1.0],"metallicFactor":0.0,"roughnessFactor":1.0}},{},{"pbrMetallicRoughness":{"baseColorFactor":[0.36451712250709534,0.36451712250709534,0.3645170331001282,1.0],"metallicFactor":0.0,"roughnessFactor":1.0}},{"pbrMetallicRoughness":{"baseColorFactor":[0.1958484947681427,0.19584855437278748,0.1958484947681427,1.0],"metallicFactor":0.0,"roughnessFactor":1.0}},{"pbrMetallicRoughness":{"baseColorFactor":[0.6980671882629395,0.40214213728904724,0.18215106427669525,1.0],"metallicFactor":0.0,"roughnessFactor":1.0}},{"pbrMetallicRoughness":{"baseColorFactor":[0.18905550241470337,0.18905553221702576,0.18905550241470337,1.0],"metallicFactor":0.0,"roughnessFactor":1.0}},{"pbrMetallicRoughness":{"baseColorFactor":[0.45770660042762756,0.38686540722846985,0.3398021459579468,1.0],"metallicFactor":0.0,"roughnessFactor":1.0}},{"pbrMetallicRoughness":{"baseColorFactor":[0.4870043396949768,0.4870041608810425,0.4870041608810425,1.0],"metallicFactor":0.0,"roughnessFactor":1.0}},{"pbrMetallicRoughness":{"baseColorFactor":[0.17423294484615326,0.13129571080207825,0.0948367640376091,1.0],"metallicFactor":0.0,"roughnessFactor":1.0}},{"pbrMetallicRoughness":{"baseColorFactor":[0.3894767761230469,0.36405232548713684,0.35532164573669434,1.0],"metallicFactor":0.0,"roughnessFactor":1.0}}],"meshes":[{"name":"MAP2","primitives":[{"attributes":{"NORMAL":2,"POSITION":0,"TANGENT":1,"TEXCOORD_0":3},"indices":4,"material":0,"mode":4},{"attributes":{"NORMAL":7,"POSITION":5,"TANGENT":6,"TEXCOORD_0":8},"indices":9,"material":1,"mode":4},{"attributes":{"NORMAL":12,"POSITION":10,"TANGENT":11,"TEXCOORD_0":13},"indices":14,"material":2,"mode":4},{"attributes":{"NORMAL":17,"POSITION":15,"TANGENT":16,"TEXCOORD_0":18},"indices":19,"material":3,"mode":4},{"attributes":{"NORMAL":22,"POSITION":20,"TANGENT":21,"TEXCOORD_0":23},"indices":24,"material":4,"mode":4},{"attributes":{"NORMAL":27,"POSITION":25,"TANGENT":26,"TEXCOORD_0":28},"indices":14,"material":5,"mode":4},{"attributes":{"NORMAL":31,"POSITION":29,"TANGENT":30,"TEXCOORD_0":32},"indices":33,"material":6,"mode":4},{"attributes":{"NORMAL":36,"POSITION":34,"TANGENT":35,"TEXCOORD_0":37},"indices":38,"material":7,"mode":4},{"attributes":{"NORMAL":41,"POSITION":39,"TANGENT":40,"TEXCOORD_0":42},"indices":38,"material":8,"mode":4},{"attributes":{"NORMAL":45,"POSITION":43,"TANGENT":44,"TEXCOORD_0":46},"indices":47,"material":9,"mode":4},{"attributes":{"NORMAL":50,"POSITION":48,"TANGENT":49,"TEXCOORD_0":51},"indices":9,"material":10,"mode":4},{"attributes":{"NORMAL":54,"POSITION":52,"TANGENT":53,"TEXCOORD_0":55},"indices":56,"material":11,"mode":4}]},{"name":"Mesh2","primitives":[{"attributes":{"NORMAL":59,"POSITION":57,"TANGENT":58,"TEXCOORD_0":60},"indices":61,"mode":4}]},{"name":"Mesh4","primitives":[{"attributes":{"NORMAL":59,"POSITION":57,"TANGENT":58,"TEXCOORD_0":60},"indices":61,"mode":4}]},{"name":"Mesh6","primitives":[{"attributes":{"NORMAL":59,"POSITION":57,"TANGENT":58,"TEXCOORD_0":60},"indices":61,"mode":4}]},{"name":"Mesh8","primitives":[{"attributes":{"NORMAL":64,"POSITION":62,"TANGENT":63,"TEXCOORD_0":65},"indices":66,"mode":4}]},{"primitives":[{"attributes":{"POSITION":67},"indices":68,"mode":4}]},{"name":"Mesh10","primitives":[{"attributes":{"NORMAL":64,"POSITION":62,"TANGENT":63,"TEXCOORD_0":65},"indices":66,"mode":4}]}],"nodes":[{"children":[1,2,33,39],"name":"SCENE"},{"extensions":{"KHR_lights_punctual":{"light":0}},"name":"DirectionalLight3D","rotation":[-0.08357632160186768,0.7173862457275391,0.6428582668304443,0.2551574110984802],"translation":[-12.087869644165039,38.262672424316406,27.744325637817383]},{"children":[3],"name":"WorldEnvironment"},{"children":[4,5,6,7,8,9,10,11,12,13,14,15,16,17,18,19,20,21,25,29],"mesh":0,"name":"MAP2","translation":[-33.44365692138672,2.667236328125,-1.7034912109375]},{"name":"CSGBox3D6","translation":[25.474802017211914,-2.3677473068237305,25.956663131713867]},{"name":"CSGBox3D2","translation":[15.496749877929688,5.912982940673828,13.460553169250488]},{"name":"CSGBox3D4","rotation":[0.0,0.7071067690849304,0.0,0.7071067690849304],"translation":[13.756477355957031,4.607746124267578,-6.550928115844727]},{"name":"CSGBox3D9","rotation":[0.0,0.7071067690849304,0.0,0.7071067690849304],"translation":[9.733625411987305,2.587238311767578,34.791568756103516]},{"name":"CSGBox3D5","rotation":[0.0,0.7071067690849304,0.0,0.7071067690849304],"translation":[20.364078521728516,5.414875030517578,58.39414978027344]},{"name":"CSGBox3D7","rotation":[0.0,0.7071067690849304,0.0,0.7071067690849304],"translation":[26.837657928466797,3.842670440673828,19.879222869873047]},{"name":"CSGBox3D12","rotation":[0.0,0.7071067690849304,0.0,0.7071067690849304],"translation":[49.00398635864258,8.82931900024414,30.9669189453125]},{"name":"CSGBox3D14","rotation":[0.0,0.7071067690849304,0.0,0.7071067690849304],"translation":[33.47825241088867,8.82931900024414,-11.938385009765625]},{"name":"CSGBox3D17","rotation":[0.0,0.7071067690849304,0.0,0.7071067690849304],"translation":[-2.8856658935546875,8.82931900024414,-2.4850950241088867]},{"name":"CSGBox3D13","rotation":[0.0,0.7071067690849304,0.0,0.7071067690849304],"translation":[35.80012512207031,7.983631134033203,17.450328826904297]},{"name":"CSGBox3D15","rotation":[0.0,0.7071067690849304,0.0,0.7071067690849304],"translation":[19.318862915039063,7.983631134033203,17.450328826904297]},{"name":"CSGBox3D3","translation":[44.147518157958984,4.029056549072266,7.036641597747803]},{"name":"CSGBox3D18","translation":[-7.903934478759766,4.029056549072266,7.036641597747803]},{"name":"CSGBox3D16","translation":[44.147518157958984,4.029056549072266,31.4239501953125]},{"name":"CSGBox3D11","translation":[43.717952728271484,7.479251861572266,50.325592041015625]},{"name":"CSGBox3D8","translation":[-1.8173446655273438,6.611911773681641,34.725135803222656]},{"name":"CSGBox3D10","translation":[17.199764251708984,2.5698156356811523,45.96219253540039]},{"children":[22,24],"extensions":{"OMI_physics_body":{"motion":{"type":"dynamic"}}},"name":"TRASH CAN2","translation":[30.746204376220703,-0.24046611785888672,48.43620300292969]},{"children":[23],"name":"trash can","rotation":[-0.7071067690849304,0.0,0.0,0.7071067690849304],"scale":[0.05000000074505806,0.05000000074505806,0.05000000074505806],"translation":[-10.146143913269043,-2.11533260345459,-13.304031372070313]},{"mesh":1,"name":"Mesh"},{"extensions":{"OMI_physics_body":{"collider":{"shape":0}}},"name":"CollisionShape3D","scale":[2.0,2.0,2.0],"translation":[-10.105378150939941,-1.304603099822998,-13.28103256225586]},{"children":[26,28],"extensions":{"OMI_physics_body":{"motion":{"type":"dynamic"}}},"name":"TRASH CAN3","translation":[13.0,-0.25999999046325684,21.600000381469727]},{"children":[27],"name":"trash can2","rotation":[-0.7071067690849304,0.0,0.0,0.7071067690849304],"scale":[0.05000000074505806,0.05000000074505806,0.05000000074505806],"translation":[-10.146143913269043,-2.11533260345459,-13.304031372070313]},{"mesh":2,"name":"Mesh3"},{"extensions":{"OMI_physics_body":{"collider":{"shape":0}}},"name":"CollisionShape3D2","scale":[2.0,2.0,2.0],"translation":[-10.105378150939941,-1.304603099822998,-13.28103256225586]},{"children":[30,32],"extensions":{"OMI_physics_body":{"motion":{"type":"dynamic"}}},"name":"TRASH CAN","translation":[46.04337692260742,-0.24046611785888672,37.105831146240234]},{"children":[31],"name":"trash can3","rotation":[-0.7071067690849304,0.0,0.0,0.7071067690849304],"scale":[0.05000000074505806,0.05000000074505806,0.05000000074505806],"translation":[-10.146143913269043,-2.11533260345459,-13.304031372070313]},{"mesh":3,"name":"Mesh5"},{"extensions":{"OMI_physics_body":{"collider":{"shape":0}}},"name":"CollisionShape3D3","scale":[2.0,2.0,2.0],"translation":[-10.105378150939941,-1.304603099822998,-13.28103256225586]},{"children":[34,36,37],"extensions":{"OMI_physics_body":{"motion":{"type":"kinematic"}}},"name":"MC","translation":[-2.697451591491699,0.0,46.73271179199219]},{"children":[35],"extensions":{"KHR_node_visibility":{"visible":false}},"name":"casino goon","scale":[0.009999999776482582,0.009999999776482582,0.009999999776482582],"translation":[-1.009846806526184,3.736117362976074,0.0]},{"mesh":4,"name":"Mesh7"},{"extensions":{"OMI_physics_body":{"collider":{"shape":1}}},"name":"CollisionShape3D4","scale":[2.0,2.0,2.0],"translation":[0.020779937505722046,1.79395592212677,0.15725398063659668]},{"children":[38],"name":"Head","translation":[0.0,1.353877305984497,0.0]},{"camera":0,"name":"Camera3D","translation":[0.0,0.7503325939178467,0.0]},{"children":[40,41,42],"extensions":{"OMI_physics_body":{"motion":{"type":"kinematic"}}},"name":"CharacterBody3D","scale":[0.05000000074505806,0.05000000074505806,0.05000000074505806],"translation":[-14.963890075683594,36.913639068603516,1.3003501892089844]},{"extensions":{"OMI_physics_body":{"collider":{"shape":1}}},"name":"CollisionShape3D5","scale":[2.0,2.0,2.0],"translation":[0.020779937505722046,1.79395592212677,0.15725398063659668]},{"name":"Decal2","rotation":[0.6902512907981873,0.0,0.0,0.7235697507858276],"scale":[104.00000762939453,104.0,104.0],"translation":[100.27130126953125,-181.04278564453125,-97.46916961669922]},{"children":[43],"name":"casino goon2"},{"mesh":6,"name":"Mesh9"}],"scene":0,"scenes":[{"nodes":[0]}]}