# WaveFront *.obj file (generated by Autodesk ATF)

mtllib trash can.mtl

g Body1

v -12.701706 0.000000 21.000000
v -6.350853 11.000000 21.000000
v 6.350853 11.000000 21.000000
v 12.701706 -0.000000 21.000000
v 6.350853 -11.000000 21.000000
v -6.350853 -11.000000 21.000000
v -7.505553 3.000000 21.000000
v -9.237604 4.000000 21.000000
v -11.547005 0.000000 21.000000
v -9.237604 -4.000000 21.000000
v -7.505553 -3.000000 21.000000
v -6.350853 -5.000000 21.000000
v -8.082904 -6.000000 21.000000
v -5.773503 -10.000000 21.000000
v -1.154701 -10.000000 21.000000
v -1.154701 -8.000000 21.000000
v 1.154701 -8.000000 21.000000
v 1.154701 -10.000000 21.000000
v 5.773503 -10.000000 21.000000
v 8.082904 -6.000000 21.000000
v 6.350853 -5.000000 21.000000
v 7.505553 -3.000000 21.000000
v 9.237604 -4.000000 21.000000
v 11.547005 -0.000000 21.000000
v 9.237604 4.000000 21.000000
v 7.505553 3.000000 21.000000
v 6.350853 5.000000 21.000000
v 8.082904 6.000000 21.000000
v 5.773503 10.000000 21.000000
v 1.154701 10.000000 21.000000
v 1.154701 8.000000 21.000000
v -1.154701 8.000000 21.000000
v -1.154701 10.000000 21.000000
v -5.773503 10.000000 21.000000
v -8.082904 6.000000 21.000000
v -6.350853 5.000000 21.000000
v -6.350853 11.000000 24.000000
v 6.350853 11.000000 24.000000
v 12.701706 -0.000000 24.000000
v 6.350853 -11.000000 24.000000
v -6.350853 -11.000000 24.000000
v -12.701706 0.000000 24.000000
v -9.237604 0.000000 24.000000
v -4.618802 8.000000 24.000000
v 4.618802 8.000000 24.000000
v 9.237604 -0.000000 24.000000
v 4.618802 -8.000000 24.000000
v -4.618802 -8.000000 24.000000
v -9.237604 -0.000000 3.000000
v -7.505553 3.000000 3.000000
v -6.350853 5.000000 3.000000
v -4.618802 8.000000 3.000000
v -7.505553 -3.000000 3.000000
v -4.618802 -8.000000 3.000000
v -6.350853 -5.000000 3.000000
v -9.237604 -4.000000 3.000000
v -9.237604 4.000000 3.000000
v 1.154701 8.000000 3.000000
v 4.618802 8.000000 3.000000
v -1.154701 8.000000 3.000000
v 1.154701 10.000000 3.000000
v 6.350853 5.000000 3.000000
v 8.082904 6.000000 3.000000
v 7.505553 3.000000 3.000000
v 9.237604 -0.000000 3.000000
v 9.237604 4.000000 3.000000
v 7.505553 -3.000000 3.000000
v 9.237604 -4.000000 3.000000
v -1.154701 -8.000000 3.000000
v 4.618802 -8.000000 3.000000
v 1.154701 -8.000000 3.000000
v -1.154701 -10.000000 3.000000
v -8.082904 -6.000000 3.000000
v -8.082904 6.000000 3.000000
v -1.154701 10.000000 3.000000
v 6.350853 -5.000000 3.000000
v 8.082904 -6.000000 3.000000
v 1.154701 -10.000000 3.000000
v 5.773503 -10.000000 0.000000
v 11.547005 -0.000000 0.000000
v -5.773503 -10.000000 0.000000
v -11.547005 -0.000000 0.000000
v -5.773503 10.000000 0.000000
v 5.773503 10.000000 0.000000
vt -0.635085 -1.100000 0.000000
vt -0.808290 -0.600000 0.000000
vt -1.270171 0.000000 0.000000
vt -0.923760 -0.400000 0.000000
vt -1.154701 0.000000 0.000000
vt 0.635085 -1.100000 0.000000
vt -0.115470 -1.000000 0.000000
vt -0.577350 -1.000000 0.000000
vt 1.270171 0.000000 0.000000
vt 0.808290 -0.600000 0.000000
vt 0.577350 -1.000000 0.000000
vt 0.115470 -1.000000 0.000000
vt 0.635085 1.100000 0.000000
vt 0.808290 0.600000 0.000000
vt 0.923760 0.400000 0.000000
vt 1.154701 0.000000 0.000000
vt -0.635085 1.100000 0.000000
vt 0.115470 1.000000 0.000000
vt 0.577350 1.000000 0.000000
vt -0.808290 0.600000 0.000000
vt -0.577350 1.000000 0.000000
vt -0.115470 1.000000 0.000000
vt -0.750555 -0.300000 0.000000
vt -0.635085 -0.500000 0.000000
vt -0.923760 0.400000 0.000000
vt -0.750555 0.300000 0.000000
vt -0.635085 0.500000 0.000000
vt -0.115470 0.800000 0.000000
vt 0.115470 0.800000 0.000000
vt 0.635085 0.500000 0.000000
vt 0.750555 0.300000 0.000000
vt 0.923760 -0.400000 0.000000
vt 0.750555 -0.300000 0.000000
vt 0.635085 -0.500000 0.000000
vt 0.115470 -0.800000 0.000000
vt -0.115470 -0.800000 0.000000
vt -0.000000 0.000000 0.000000
vt 1.270171 0.000000 0.000000
vt -0.000000 0.300000 0.000000
vt 1.270171 0.300000 0.000000
vt 0.000000 0.000000 0.000000
vt 1.270171 0.000000 0.000000
vt 0.000000 0.300000 0.000000
vt 1.270171 0.300000 0.000000
vt 0.000000 0.000000 0.000000
vt 1.270171 0.000000 0.000000
vt -0.000000 0.300000 0.000000
vt 1.270171 0.300000 0.000000
vt 0.000000 0.000000 0.000000
vt 1.270171 0.000000 0.000000
vt 0.000000 0.300000 0.000000
vt 1.270171 0.300000 0.000000
vt 0.000000 0.000000 0.000000
vt 1.270171 0.000000 0.000000
vt 0.000000 0.300000 0.000000
vt 1.270171 0.300000 0.000000
vt -0.000000 0.000000 0.000000
vt 1.270171 0.000000 0.000000
vt -0.000000 0.300000 0.000000
vt 1.270171 0.300000 0.000000
vt -0.461880 -0.800000 0.000000
vt -0.923760 -0.000000 0.000000
vt -1.270171 -0.000000 0.000000
vt -0.461880 0.800000 0.000000
vt -0.635085 1.100000 0.000000
vt 0.461880 0.800000 0.000000
vt 0.635085 1.100000 0.000000
vt 1.270171 -0.000000 0.000000
vt 0.923760 -0.000000 0.000000
vt 0.461880 -0.800000 0.000000
vt 0.635085 -1.100000 0.000000
vt -0.635085 -1.100000 0.000000
vt 0.346410 0.000000 0.000000
vt 0.346410 1.800000 0.000000
vt 0.000000 0.000000 0.000000
vt 0.000000 2.100000 0.000000
vt 0.577350 1.800000 0.000000
vt 0.923760 2.100000 0.000000
vt 0.923760 0.000000 0.000000
vt 0.577350 0.000000 0.000000
vt 0.000000 0.000000 0.000000
vt 0.346410 0.000000 0.000000
vt -0.000000 1.800000 0.000000
vt 0.346410 2.100000 0.000000
vt -0.577350 2.100000 0.000000
vt -0.230940 1.800000 0.000000
vt -0.577350 0.000000 0.000000
vt -0.230940 0.000000 0.000000
vt 0.000000 0.000000 0.000000
vt 0.200000 0.000000 0.000000
vt 0.000000 1.800000 0.000000
vt 0.200000 1.800000 0.000000
vt 0.000000 0.000000 0.000000
vt 0.200000 0.000000 0.000000
vt 0.000000 1.800000 0.000000
vt 0.200000 1.800000 0.000000
vt 0.000000 0.000000 0.000000
vt 0.346410 0.000000 0.000000
vt -0.000000 1.800000 0.000000
vt 0.346410 2.100000 0.000000
vt -0.577350 2.100000 0.000000
vt -0.230940 1.800000 0.000000
vt -0.577350 0.000000 0.000000
vt -0.230940 0.000000 0.000000
vt -0.000000 0.000000 0.000000
vt 0.200000 0.000000 0.000000
vt -0.000000 1.800000 0.000000
vt 0.200000 1.800000 0.000000
vt 0.000000 0.000000 0.000000
vt 0.200000 0.000000 0.000000
vt 0.000000 1.800000 0.000000
vt 0.200000 1.800000 0.000000
vt 0.000000 0.000000 0.000000
vt 0.346410 0.000000 0.000000
vt 0.000000 1.800000 0.000000
vt 0.346410 2.100000 0.000000
vt -0.577350 2.100000 0.000000
vt -0.230940 1.800000 0.000000
vt -0.577350 0.000000 0.000000
vt -0.230940 0.000000 0.000000
vt -0.000000 0.000000 0.000000
vt 0.200000 0.000000 0.000000
vt 0.000000 1.800000 0.000000
vt 0.200000 1.800000 0.000000
vt 0.000000 0.000000 0.000000
vt 0.200000 0.000000 0.000000
vt 0.000000 1.800000 0.000000
vt 0.200000 1.800000 0.000000
vt 0.000000 0.000000 0.000000
vt 0.346410 0.000000 0.000000
vt -0.000000 1.800000 0.000000
vt 0.346410 2.100000 0.000000
vt -0.577350 2.100000 0.000000
vt -0.230940 1.800000 0.000000
vt -0.577350 0.000000 0.000000
vt -0.230940 0.000000 0.000000
vt 0.000000 0.000000 0.000000
vt 0.200000 0.000000 0.000000
vt -0.000000 1.800000 0.000000
vt 0.200000 1.800000 0.000000
vt 0.000000 0.000000 0.000000
vt 0.200000 0.000000 0.000000
vt 0.000000 1.800000 0.000000
vt 0.200000 1.800000 0.000000
vt 0.000000 0.000000 0.000000
vt 0.200000 0.000000 0.000000
vt 0.000000 1.800000 0.000000
vt 0.200000 1.800000 0.000000
vt 0.000000 0.000000 0.000000
vt 0.200000 0.000000 0.000000
vt 0.000000 1.800000 0.000000
vt 0.200000 1.800000 0.000000
vt -0.000000 0.000000 0.000000
vt 0.346410 0.000000 0.000000
vt -0.000000 1.800000 0.000000
vt 0.346410 2.100000 0.000000
vt -0.577350 2.100000 0.000000
vt -0.230940 1.800000 0.000000
vt -0.577350 0.000000 0.000000
vt -0.230940 0.000000 0.000000
vt 0.000000 0.000000 0.000000
vt 0.200000 0.000000 0.000000
vt 0.000000 1.800000 0.000000
vt 0.200000 1.800000 0.000000
vt 0.000000 0.000000 0.000000
vt 0.200000 0.000000 0.000000
vt 0.000000 1.800000 0.000000
vt 0.200000 1.800000 0.000000
vt 0.000000 2.100000 0.000000
vt 0.000000 0.000000 0.000000
vt 0.461880 0.300000 0.000000
vt 1.154701 0.000000 0.000000
vt 0.692820 0.300000 0.000000
vt 1.154701 2.100000 0.000000
vt 0.692820 2.100000 0.000000
vt 0.461880 2.100000 0.000000
vt 0.000000 2.100000 0.000000
vt 0.000000 0.000000 0.000000
vt 0.461880 0.300000 0.000000
vt 1.154701 0.000000 0.000000
vt 0.692820 0.300000 0.000000
vt 1.154701 2.100000 0.000000
vt 0.692820 2.100000 0.000000
vt 0.461880 2.100000 0.000000
vt 0.000000 2.100000 0.000000
vt 0.000000 0.000000 0.000000
vt 0.461880 0.300000 0.000000
vt 1.154701 0.000000 0.000000
vt 0.692820 0.300000 0.000000
vt 1.154701 2.100000 0.000000
vt 0.692820 2.100000 0.000000
vt 0.461880 2.100000 0.000000
vt -0.000000 2.100000 0.000000
vt 0.000000 0.000000 0.000000
vt 0.461880 0.300000 0.000000
vt 1.154701 0.000000 0.000000
vt 0.692820 0.300000 0.000000
vt 1.154701 2.100000 0.000000
vt 0.692820 2.100000 0.000000
vt 0.461880 2.100000 0.000000
vt 0.000000 2.100000 0.000000
vt 0.000000 0.000000 0.000000
vt 0.461880 0.300000 0.000000
vt 1.154701 0.000000 0.000000
vt 0.692820 0.300000 0.000000
vt 1.154701 2.100000 0.000000
vt 0.692820 2.100000 0.000000
vt 0.461880 2.100000 0.000000
vt 0.000000 2.100000 0.000000
vt 0.000000 0.000000 0.000000
vt 0.461880 0.300000 0.000000
vt 1.154701 0.000000 0.000000
vt 0.692820 0.300000 0.000000
vt 1.154701 2.100000 0.000000
vt 0.692820 2.100000 0.000000
vt 0.461880 2.100000 0.000000
vt -0.923760 -0.400000 0.000000
vt -0.808290 -0.600000 0.000000
vt -0.750555 -0.300000 0.000000
vt -0.635085 -0.500000 0.000000
vt -0.635085 0.500000 0.000000
vt -0.115470 -0.800000 0.000000
vt -0.115470 0.800000 0.000000
vt 0.115470 -0.800000 0.000000
vt 0.115470 0.800000 0.000000
vt 0.635085 -0.500000 0.000000
vt 0.750555 -0.300000 0.000000
vt 0.808290 -0.600000 0.000000
vt 0.923760 -0.400000 0.000000
vt -0.461880 -0.800000 0.000000
vt -0.115470 -1.000000 0.000000
vt 0.115470 -1.000000 0.000000
vt 0.461880 -0.800000 0.000000
vt 0.923760 -0.000000 0.000000
vt 0.750555 0.300000 0.000000
vt 0.635085 0.500000 0.000000
vt 0.461880 0.800000 0.000000
vt 0.923760 0.400000 0.000000
vt 0.808290 0.600000 0.000000
vt 0.115470 1.000000 0.000000
vt -0.115470 1.000000 0.000000
vt -0.461880 0.800000 0.000000
vt -0.750555 0.300000 0.000000
vt -0.808290 0.600000 0.000000
vt -0.923760 0.400000 0.000000
vt -0.923760 -0.000000 0.000000
vt 0.577350 1.000000 0.000000
vt -0.577350 1.000000 0.000000
vt 1.154701 -0.000000 0.000000
vt -1.154701 -0.000000 0.000000
vt 0.577350 -1.000000 0.000000
vt -0.577350 -1.000000 0.000000
vn 0.000000 0.000000 -0.100000
vn 0.000000 0.000000 -0.100000
vn 0.000000 0.000000 -0.100000
vn 0.000000 0.000000 -0.100000
vn 0.000000 0.000000 -0.100000
vn 0.000000 0.000000 -0.100000
vn 0.000000 0.000000 -0.100000
vn 0.000000 0.000000 -0.100000
vn 0.000000 0.000000 -0.100000
vn 0.000000 0.000000 -0.100000
vn 0.000000 0.000000 -0.100000
vn 0.000000 0.000000 -0.100000
vn 0.000000 0.000000 -0.100000
vn 0.000000 0.000000 -0.100000
vn 0.000000 0.000000 -0.100000
vn 0.000000 0.000000 -0.100000
vn 0.000000 0.000000 -0.100000
vn 0.000000 0.000000 -0.100000
vn 0.000000 0.000000 -0.100000
vn 0.000000 0.000000 -0.100000
vn 0.000000 0.000000 -0.100000
vn 0.000000 0.000000 -0.100000
vn 0.000000 0.000000 -0.100000
vn 0.000000 0.000000 -0.100000
vn 0.000000 0.000000 -0.100000
vn 0.000000 0.000000 -0.100000
vn 0.000000 0.000000 -0.100000
vn 0.000000 0.000000 -0.100000
vn 0.000000 0.000000 -0.100000
vn 0.000000 0.000000 -0.100000
vn 0.000000 0.000000 -0.100000
vn 0.000000 0.000000 -0.100000
vn 0.000000 0.000000 -0.100000
vn 0.000000 0.000000 -0.100000
vn 0.000000 0.000000 -0.100000
vn 0.000000 0.000000 -0.100000
vn 0.000000 0.100000 0.000000
vn 0.000000 0.100000 0.000000
vn 0.000000 0.100000 0.000000
vn 0.000000 0.100000 0.000000
vn 0.086603 0.050000 0.000000
vn 0.086603 0.050000 0.000000
vn 0.086603 0.050000 0.000000
vn 0.086603 0.050000 0.000000
vn 0.086603 -0.050000 0.000000
vn 0.086603 -0.050000 0.000000
vn 0.086603 -0.050000 0.000000
vn 0.086603 -0.050000 0.000000
vn -0.000000 -0.100000 0.000000
vn -0.000000 -0.100000 0.000000
vn -0.000000 -0.100000 0.000000
vn -0.000000 -0.100000 0.000000
vn -0.086603 -0.050000 0.000000
vn -0.086603 -0.050000 0.000000
vn -0.086603 -0.050000 0.000000
vn -0.086603 -0.050000 0.000000
vn -0.086603 0.050000 0.000000
vn -0.086603 0.050000 0.000000
vn -0.086603 0.050000 0.000000
vn -0.086603 0.050000 0.000000
vn 0.000000 0.000000 0.100000
vn 0.000000 0.000000 0.100000
vn 0.000000 0.000000 0.100000
vn 0.000000 0.000000 0.100000
vn 0.000000 0.000000 0.100000
vn 0.000000 0.000000 0.100000
vn 0.000000 0.000000 0.100000
vn 0.000000 0.000000 0.100000
vn 0.000000 0.000000 0.100000
vn 0.000000 0.000000 0.100000
vn 0.000000 0.000000 0.100000
vn 0.000000 0.000000 0.100000
vn 0.086603 -0.050000 0.000000
vn 0.086603 -0.050000 0.000000
vn 0.086603 -0.050000 0.000000
vn 0.086603 -0.050000 0.000000
vn 0.086603 -0.050000 0.000000
vn 0.086603 -0.050000 0.000000
vn 0.086603 -0.050000 0.000000
vn 0.086603 -0.050000 0.000000
vn 0.086603 0.050000 0.000000
vn 0.086603 0.050000 0.000000
vn 0.086603 0.050000 0.000000
vn 0.086603 0.050000 0.000000
vn 0.086603 0.050000 0.000000
vn 0.086603 0.050000 0.000000
vn 0.086603 0.050000 0.000000
vn 0.086603 0.050000 0.000000
vn 0.050000 -0.086603 0.000000
vn 0.050000 -0.086603 0.000000
vn 0.050000 -0.086603 0.000000
vn 0.050000 -0.086603 0.000000
vn 0.050000 0.086603 0.000000
vn 0.050000 0.086603 0.000000
vn 0.050000 0.086603 0.000000
vn 0.050000 0.086603 0.000000
vn 0.000000 -0.100000 0.000000
vn 0.000000 -0.100000 0.000000
vn 0.000000 -0.100000 0.000000
vn 0.000000 -0.100000 0.000000
vn 0.000000 -0.100000 0.000000
vn 0.000000 -0.100000 0.000000
vn 0.000000 -0.100000 0.000000
vn 0.000000 -0.100000 0.000000
vn -0.100000 0.000000 0.000000
vn -0.100000 0.000000 0.000000
vn -0.100000 0.000000 0.000000
vn -0.100000 0.000000 0.000000
vn 0.050000 -0.086603 0.000000
vn 0.050000 -0.086603 0.000000
vn 0.050000 -0.086603 0.000000
vn 0.050000 -0.086603 0.000000
vn -0.086603 -0.050000 0.000000
vn -0.086603 -0.050000 0.000000
vn -0.086603 -0.050000 0.000000
vn -0.086603 -0.050000 0.000000
vn -0.086603 -0.050000 0.000000
vn -0.086603 -0.050000 0.000000
vn -0.086603 -0.050000 0.000000
vn -0.086603 -0.050000 0.000000
vn -0.050000 0.086603 0.000000
vn -0.050000 0.086603 0.000000
vn -0.050000 0.086603 0.000000
vn -0.050000 0.086603 0.000000
vn -0.050000 -0.086603 0.000000
vn -0.050000 -0.086603 0.000000
vn -0.050000 -0.086603 0.000000
vn -0.050000 -0.086603 0.000000
vn 0.000000 0.100000 0.000000
vn 0.000000 0.100000 0.000000
vn 0.000000 0.100000 0.000000
vn 0.000000 0.100000 0.000000
vn 0.000000 0.100000 0.000000
vn 0.000000 0.100000 0.000000
vn 0.000000 0.100000 0.000000
vn 0.000000 0.100000 0.000000
vn 0.100000 -0.000000 0.000000
vn 0.100000 -0.000000 0.000000
vn 0.100000 -0.000000 0.000000
vn 0.100000 -0.000000 0.000000
vn -0.050000 0.086603 0.000000
vn -0.050000 0.086603 0.000000
vn -0.050000 0.086603 0.000000
vn -0.050000 0.086603 0.000000
vn -0.050000 -0.086603 0.000000
vn -0.050000 -0.086603 0.000000
vn -0.050000 -0.086603 0.000000
vn -0.050000 -0.086603 0.000000
vn 0.100000 0.000000 0.000000
vn 0.100000 0.000000 0.000000
vn 0.100000 0.000000 0.000000
vn 0.100000 0.000000 0.000000
vn -0.086603 0.050000 0.000000
vn -0.086603 0.050000 0.000000
vn -0.086603 0.050000 0.000000
vn -0.086603 0.050000 0.000000
vn -0.086603 0.050000 0.000000
vn -0.086603 0.050000 0.000000
vn -0.086603 0.050000 0.000000
vn -0.086603 0.050000 0.000000
vn 0.050000 0.086603 0.000000
vn 0.050000 0.086603 0.000000
vn 0.050000 0.086603 0.000000
vn 0.050000 0.086603 0.000000
vn -0.100000 0.000000 0.000000
vn -0.100000 0.000000 0.000000
vn -0.100000 0.000000 0.000000
vn -0.100000 0.000000 0.000000
vn 0.086603 -0.050000 0.000000
vn 0.086603 -0.050000 0.000000
vn 0.086603 -0.050000 0.000000
vn 0.086603 -0.050000 0.000000
vn 0.086603 -0.050000 0.000000
vn 0.086603 -0.050000 0.000000
vn 0.086603 -0.050000 0.000000
vn 0.086603 -0.050000 0.000000
vn -0.000000 -0.100000 0.000000
vn -0.000000 -0.100000 0.000000
vn -0.000000 -0.100000 0.000000
vn -0.000000 -0.100000 0.000000
vn -0.000000 -0.100000 0.000000
vn -0.000000 -0.100000 0.000000
vn -0.000000 -0.100000 0.000000
vn -0.000000 -0.100000 0.000000
vn -0.086603 -0.050000 0.000000
vn -0.086603 -0.050000 0.000000
vn -0.086603 -0.050000 0.000000
vn -0.086603 -0.050000 0.000000
vn -0.086603 -0.050000 0.000000
vn -0.086603 -0.050000 0.000000
vn -0.086603 -0.050000 0.000000
vn -0.086603 -0.050000 0.000000
vn -0.086603 0.050000 0.000000
vn -0.086603 0.050000 0.000000
vn -0.086603 0.050000 0.000000
vn -0.086603 0.050000 0.000000
vn -0.086603 0.050000 0.000000
vn -0.086603 0.050000 0.000000
vn -0.086603 0.050000 0.000000
vn -0.086603 0.050000 0.000000
vn 0.000000 0.100000 0.000000
vn 0.000000 0.100000 0.000000
vn 0.000000 0.100000 0.000000
vn 0.000000 0.100000 0.000000
vn 0.000000 0.100000 0.000000
vn 0.000000 0.100000 0.000000
vn 0.000000 0.100000 0.000000
vn 0.000000 0.100000 0.000000
vn 0.086603 0.050000 0.000000
vn 0.086603 0.050000 0.000000
vn 0.086603 0.050000 0.000000
vn 0.086603 0.050000 0.000000
vn 0.086603 0.050000 0.000000
vn 0.086603 0.050000 0.000000
vn 0.086603 0.050000 0.000000
vn 0.086603 0.050000 0.000000
vn 0.000000 0.000000 0.100000
vn 0.000000 0.000000 0.100000
vn 0.000000 0.000000 0.100000
vn 0.000000 0.000000 0.100000
vn 0.000000 0.000000 0.100000
vn 0.000000 0.000000 0.100000
vn 0.000000 0.000000 0.100000
vn 0.000000 0.000000 0.100000
vn 0.000000 0.000000 0.100000
vn 0.000000 0.000000 0.100000
vn 0.000000 0.000000 0.100000
vn 0.000000 0.000000 0.100000
vn 0.000000 0.000000 0.100000
vn 0.000000 0.000000 0.100000
vn 0.000000 0.000000 0.100000
vn 0.000000 0.000000 0.100000
vn 0.000000 0.000000 0.100000
vn 0.000000 0.000000 0.100000
vn 0.000000 0.000000 0.100000
vn 0.000000 0.000000 0.100000
vn 0.000000 0.000000 0.100000
vn 0.000000 0.000000 0.100000
vn 0.000000 0.000000 0.100000
vn 0.000000 0.000000 0.100000
vn 0.000000 0.000000 0.100000
vn 0.000000 0.000000 0.100000
vn 0.000000 0.000000 0.100000
vn 0.000000 0.000000 0.100000
vn 0.000000 0.000000 0.100000
vn 0.000000 0.000000 0.100000
vn 0.000000 0.000000 -0.100000
vn 0.000000 0.000000 -0.100000
vn 0.000000 0.000000 -0.100000
vn 0.000000 0.000000 -0.100000
vn 0.000000 0.000000 -0.100000
vn 0.000000 0.000000 -0.100000
usemtl Steel_-_Satin
f 2/1/1 35/2/2 1/3/3
f 1/3/3 35/2/2 8/4/4
f 1/3/3 8/4/4 9/5/5
f 3/6/6 33/7/7 2/1/1
f 2/1/1 33/7/7 34/8/8
f 2/1/1 34/8/8 35/2/2
f 4/9/9 28/10/10 3/6/6
f 3/6/6 28/10/10 29/11/11
f 3/6/6 29/11/11 30/12/12
f 5/13/13 20/14/14 4/9/9
f 4/9/9 20/14/14 23/15/15
f 4/9/9 23/15/15 24/16/16
f 6/17/17 18/18/18 5/13/13
f 5/13/13 18/18/18 19/19/19
f 5/13/13 19/19/19 20/14/14
f 1/3/3 13/20/20 6/17/17
f 6/17/17 13/20/20 14/21/21
f 6/17/17 14/21/21 15/22/22
f 7/23/23 8/4/4 36/24/24
f 36/24/24 8/4/4 35/2/2
f 9/5/5 10/25/25 1/3/3
f 1/3/3 10/25/25 13/20/20
f 11/26/26 12/27/27 10/25/25
f 10/25/25 12/27/27 13/20/20
f 16/28/28 17/29/29 15/22/22
f 15/22/22 17/29/29 18/18/18
f 15/22/22 18/18/18 6/17/17
f 20/14/14 21/30/30 23/15/15
f 23/15/15 21/30/30 22/31/31
f 24/16/16 25/32/32 4/9/9
f 4/9/9 25/32/32 28/10/10
f 26/33/33 27/34/34 25/32/32
f 25/32/32 27/34/34 28/10/10
f 31/35/35 32/36/36 30/12/12
f 30/12/12 32/36/36 33/7/7
f 30/12/12 33/7/7 3/6/6
f 3/37/37 2/38/38 38/39/39
f 38/39/39 2/38/38 37/40/40
f 4/41/41 3/42/42 39/43/43
f 39/43/43 3/42/42 38/44/44
f 5/45/45 4/46/46 40/47/47
f 40/47/47 4/46/46 39/48/48
f 6/49/49 5/50/50 41/51/51
f 41/51/51 5/50/50 40/52/52
f 1/53/53 6/54/54 42/55/55
f 42/55/55 6/54/54 41/56/56
f 2/57/57 1/58/58 37/59/59
f 37/59/59 1/58/58 42/60/60
f 48/61/61 43/62/62 42/63/63
f 42/63/63 43/62/62 44/64/64
f 42/63/63 44/64/64 37/65/65
f 37/65/65 44/64/64 45/66/66
f 37/65/65 45/66/66 38/67/67
f 38/67/67 45/66/66 39/68/68
f 39/68/68 45/66/66 46/69/69
f 39/68/68 46/69/69 47/70/70
f 39/68/68 47/70/70 40/71/71
f 40/71/71 47/70/70 48/61/61
f 40/71/71 48/61/61 41/72/72
f 41/72/72 48/61/61 42/63/63
f 50/73/73 7/74/74 49/75/75
f 49/75/75 7/74/74 43/76/76
f 43/76/76 7/74/74 36/77/77
f 43/76/76 36/77/77 44/78/78
f 44/78/78 36/77/77 52/79/79
f 52/79/79 36/77/77 51/80/80
f 53/81/81 49/82/82 11/83/83
f 11/83/83 49/82/82 43/84/84
f 11/83/83 43/84/84 48/85/85
f 11/83/83 48/85/85 12/86/86
f 12/86/86 48/85/85 54/87/87
f 12/86/86 54/87/87 55/88/88
f 56/89/89 53/90/90 10/91/91
f 10/91/91 53/90/90 11/92/92
f 50/93/93 57/94/94 7/95/95
f 7/95/95 57/94/94 8/96/96
f 58/97/97 59/98/98 31/99/99
f 31/99/99 59/98/98 45/100/100
f 31/99/99 45/100/100 44/101/101
f 31/99/99 44/101/101 32/102/102
f 32/102/102 44/101/101 52/103/103
f 32/102/102 52/103/103 60/104/104
f 61/105/105 58/106/106 30/107/107
f 30/107/107 58/106/106 31/108/108
f 62/109/109 63/110/110 27/111/111
f 27/111/111 63/110/110 28/112/112
f 64/113/113 65/114/114 26/115/115
f 26/115/115 65/114/114 46/116/116
f 26/115/115 46/116/116 45/117/117
f 26/115/115 45/117/117 27/118/118
f 27/118/118 45/117/117 59/119/119
f 27/118/118 59/119/119 62/120/120
f 66/121/121 64/122/122 25/123/123
f 25/123/123 64/122/122 26/124/124
f 67/125/125 68/126/126 22/127/127
f 22/127/127 68/126/126 23/128/128
f 69/129/129 54/130/130 16/131/131
f 16/131/131 54/130/130 48/132/132
f 16/131/131 48/132/132 47/133/133
f 16/131/131 47/133/133 17/134/134
f 17/134/134 47/133/133 70/135/135
f 17/134/134 70/135/135 71/136/136
f 72/137/137 69/138/138 15/139/139
f 15/139/139 69/138/138 16/140/140
f 55/141/141 73/142/142 12/143/143
f 12/143/143 73/142/142 13/144/144
f 74/145/145 51/146/146 35/147/147
f 35/147/147 51/146/146 36/148/148
f 60/149/149 75/150/150 32/151/151
f 32/151/151 75/150/150 33/152/152
f 76/153/153 70/154/154 21/155/155
f 21/155/155 70/154/154 47/156/156
f 21/155/155 47/156/156 46/157/157
f 21/155/155 46/157/157 22/158/158
f 22/158/158 46/157/157 65/159/159
f 22/158/158 65/159/159 67/160/160
f 77/161/161 76/162/162 20/163/163
f 20/163/163 76/162/162 21/164/164
f 71/165/165 78/166/166 17/167/167
f 17/167/167 78/166/166 18/168/168
f 19/169/169 79/170/170 77/171/171
f 77/171/171 79/170/170 80/172/172
f 77/171/171 80/172/172 68/173/173
f 68/173/173 80/172/172 24/174/174
f 68/173/173 24/174/174 23/175/175
f 77/171/171 20/176/176 19/169/169
f 14/177/177 81/178/178 72/179/179
f 72/179/179 81/178/178 79/180/180
f 72/179/179 79/180/180 78/181/181
f 78/181/181 79/180/180 19/182/182
f 78/181/181 19/182/182 18/183/183
f 72/179/179 15/184/184 14/177/177
f 9/185/185 82/186/186 56/187/187
f 56/187/187 82/186/186 81/188/188
f 56/187/187 81/188/188 73/189/189
f 73/189/189 81/188/188 14/190/190
f 73/189/189 14/190/190 13/191/191
f 56/187/187 10/192/192 9/185/185
f 34/193/193 83/194/194 74/195/195
f 74/195/195 83/194/194 82/196/196
f 74/195/195 82/196/196 57/197/197
f 57/197/197 82/196/196 9/198/198
f 57/197/197 9/198/198 8/199/199
f 74/195/195 35/200/200 34/193/193
f 29/201/201 84/202/202 61/203/203
f 61/203/203 84/202/202 83/204/204
f 61/203/203 83/204/204 75/205/205
f 75/205/205 83/204/204 34/206/206
f 75/205/205 34/206/206 33/207/207
f 61/203/203 30/208/208 29/201/201
f 24/209/209 80/210/210 66/211/211
f 66/211/211 80/210/210 84/212/212
f 66/211/211 84/212/212 63/213/213
f 63/213/213 84/212/212 29/214/214
f 63/213/213 29/214/214 28/215/215
f 66/211/211 25/216/216 24/209/209
f 56/217/217 73/218/218 53/219/219
f 53/219/219 73/218/218 55/220/220
f 53/219/219 55/220/220 51/221/221
f 51/221/221 55/220/220 69/222/222
f 51/221/221 69/222/222 60/223/223
f 60/223/223 69/222/222 71/224/224
f 60/223/223 71/224/224 58/225/225
f 58/225/225 71/224/224 76/226/226
f 58/225/225 76/226/226 67/227/227
f 67/227/227 76/226/226 77/228/228
f 67/227/227 77/228/228 68/229/229
f 55/220/220 54/230/230 69/222/222
f 72/231/231 78/232/232 69/222/222
f 69/222/222 78/232/232 71/224/224
f 71/224/224 70/233/233 76/226/226
f 65/234/234 64/235/235 67/227/227
f 67/227/227 64/235/235 62/236/236
f 67/227/227 62/236/236 58/225/225
f 58/225/225 62/236/236 59/237/237
f 66/238/238 63/239/239 64/235/235
f 64/235/235 63/239/239 62/236/236
f 61/240/240 75/241/241 58/225/225
f 58/225/225 75/241/241 60/223/223
f 60/223/223 52/242/242 51/221/221
f 53/219/219 51/221/221 50/243/243
f 50/243/243 51/221/221 74/244/244
f 50/243/243 74/244/244 57/245/245
f 50/243/243 49/246/246 53/219/219
f 83/247/247 84/248/248 82/249/249
f 82/249/249 84/248/248 80/250/250
f 82/249/249 80/250/250 81/251/251
f 81/251/251 80/250/250 79/252/252
# 84 vertices
# 252 texture params
# 252 normals
# 188 facets

# 1 groups
